<?xml version="1.0" encoding="utf-8"?>
<!-- Generator: Adobe Illustrator 16.0.0, SVG Export Plug-In . SVG Version: 6.00 Build 0)  -->
<!DOCTYPE svg PUBLIC "-//W3C//DTD SVG 1.1//EN" "http://www.w3.org/Graphics/SVG/1.1/DTD/svg11.dtd">
<svg version="1.1" id="Layer_1" xmlns="http://www.w3.org/2000/svg" xmlns:xlink="http://www.w3.org/1999/xlink" x="0px" y="0px"
	 width="1920px" height="1080px" viewBox="0 0 1920 1080" enable-background="new 0 0 1920 1080" xml:space="preserve">
<title>Facebook icon</title>
<path d="M1440.42,0H479.58C446.685,0,420,26.685,420,59.58v960.84c0,32.938,26.685,59.58,59.58,59.58H996.81V661.77H856.005V498.823
	h140.806V378.448c0-139.453,85.229-215.323,209.654-215.323c59.625,0,110.88,4.363,125.82,6.345v145.8h-86.445
	c-67.5,0-80.64,32.445-80.64,79.695V498.96h161.28l-20.927,163.35H1165.2V1080h275.175c32.985,0,59.625-26.642,59.625-59.58V59.58
	C1500,26.685,1473.36,0,1440.42,0"/>
</svg>
