<?xml version="1.0" encoding="utf-8"?>
<!-- Generator: Adobe Illustrator 16.0.0, SVG Export Plug-In . SVG Version: 6.00 Build 0)  -->
<!DOCTYPE svg PUBLIC "-//W3C//DTD SVG 1.1//EN" "http://www.w3.org/Graphics/SVG/1.1/DTD/svg11.dtd">
<svg version="1.1" id="Layer_1" xmlns="http://www.w3.org/2000/svg" xmlns:xlink="http://www.w3.org/1999/xlink" x="0px" y="0px"
	 width="1920px" height="1080px" viewBox="0 0 1920 1080" enable-background="new 0 0 1920 1080" xml:space="preserve">
<title>Instagram icon</title>
<path d="M960,0C813.3,0,794.985,0.675,737.385,3.24c-57.51,2.7-96.66,11.745-131.085,25.11
	c-35.505,13.771-65.655,32.265-95.67,62.28c-30.015,30.015-48.555,60.12-62.28,95.67c-13.363,34.425-22.455,73.575-25.108,131.085
	C420.54,374.985,420,393.3,420,540c0,146.698,0.675,165.015,3.24,222.613c2.7,57.465,11.745,96.66,25.108,131.085
	c13.771,35.46,32.267,65.655,62.28,95.67c30.015,29.972,60.12,48.557,95.67,62.28c34.471,13.32,73.62,22.455,131.085,25.11
	c57.602,2.7,75.915,3.239,222.615,3.239s165.015-0.676,222.615-3.239c57.465-2.7,96.66-11.79,131.085-25.11
	c35.46-13.77,65.654-32.31,95.67-62.28c29.97-30.015,48.555-60.074,62.28-95.67c13.318-34.425,22.454-73.62,25.108-131.085
	c2.7-57.6,3.24-75.915,3.24-222.615c0-146.698-0.675-165.015-3.24-222.613c-2.699-57.465-11.79-96.705-25.108-131.085
	c-13.771-35.505-32.312-65.655-62.28-95.67c-30.016-30.017-60.075-48.555-95.67-62.28c-34.426-13.365-73.62-22.455-131.085-25.11
	C1125.015,0.54,1106.7,0,960,0z M960,97.2c144.135,0,161.325,0.72,218.25,3.193c52.65,2.477,81.225,11.205,100.215,18.675
	c25.29,9.767,43.2,21.467,62.19,40.32c18.854,18.9,30.555,36.855,40.318,62.146c7.381,18.988,16.2,47.563,18.586,100.215
	c2.564,56.97,3.149,74.068,3.149,218.25c0,144.18-0.675,161.323-3.33,218.25c-2.745,52.648-11.52,81.225-18.943,100.215
	c-10.08,25.29-21.557,43.198-40.455,62.188c-18.855,18.855-37.08,30.556-62.102,40.32c-18.898,7.38-47.925,16.2-100.574,18.585
	c-57.33,2.564-74.205,3.148-218.654,3.148c-144.495,0-161.37-0.675-218.655-3.328c-52.695-2.745-81.72-11.521-100.62-18.945
	c-25.604-10.08-43.2-21.555-62.055-40.455c-18.945-18.854-31.051-37.08-40.5-62.1c-7.426-18.9-16.155-47.927-18.9-100.575
	c-2.024-56.7-2.745-74.205-2.745-217.98c0-143.818,0.721-161.37,2.745-218.745c2.745-52.648,11.476-81.628,18.9-100.528
	c9.449-25.65,21.555-43.2,40.5-62.146c18.854-18.854,36.449-31.005,62.055-40.408c18.9-7.472,47.295-16.245,99.945-18.945
	c57.375-2.025,74.25-2.7,218.654-2.7L960,97.2z M960,262.71c-153.225,0-277.29,124.198-277.29,277.29
	c0,153.225,124.2,277.288,277.29,277.288c153.225,0,277.29-124.198,277.29-277.288C1237.29,386.775,1113.09,262.71,960,262.71
	L960,262.71z M960,720c-99.45,0-180-80.552-180-180c0-99.45,80.55-180,180-180s180,80.55,180,180C1140,639.448,1059.45,720,960,720z
	 M1313.07,251.775c0,35.775-29.07,64.8-64.802,64.8c-35.773,0-64.8-29.068-64.8-64.8c0-35.729,29.07-64.755,64.8-64.755
	C1283.955,186.975,1313.07,216.045,1313.07,251.775z"/>
</svg>
