<?xml version="1.0" encoding="utf-8"?>
<!-- Generator: Adobe Illustrator 16.0.0, SVG Export Plug-In . SVG Version: 6.00 Build 0)  -->
<!DOCTYPE svg PUBLIC "-//W3C//DTD SVG 1.1//EN" "http://www.w3.org/Graphics/SVG/1.1/DTD/svg11.dtd">
<svg version="1.1" id="Layer_1" xmlns="http://www.w3.org/2000/svg" xmlns:xlink="http://www.w3.org/1999/xlink" x="0px" y="0px"
	 width="1920px" height="1080px" viewBox="0 0 1920 1080" enable-background="new 0 0 1920 1080" xml:space="preserve">
<title>SoundCloud icon</title>
<path d="M472.875,550.125c-2.295,0-4.23,2.068-4.545,4.5l-10.485,96.93l10.485,94.725c0.313,2.61,2.25,4.41,4.545,4.41
	c2.25,0,4.05-1.8,4.455-4.41l11.475-94.725l-12.148-96.93c0-2.565-2.025-4.5-4.05-4.5 M432.15,587.385
	c-2.7,0-4.097,1.665-4.682,4.229l-7.47,59.94l7.425,58.858c0,2.477,2.025,4.23,4.05,4.23c2.025,0,4.007-2.025,4.682-4.68
	l9.45-59.355l-9.45-60.03c0-2.745-1.98-4.05-4.05-4.05 M514.455,531.225c-2.745,0-5.4,2.025-5.4,4.68l-9.448,115.335l10.125,110.61
	c0,2.7,2.023,5.398,5.354,5.398c2.745,0,4.726-2.743,5.445-5.398l11.43-111.33l-11.43-114.66c-0.72-2.7-2.745-5.4-5.445-5.4
	 M557.61,526.453c-3.375,0-6.075,2.7-6.75,6.075l-8.687,118.8l9.45,114.48c0.72,3.465,3.375,6.21,6.705,6.21
	c3.375,0,6.075-2.745,6.75-6.75l10.8-113.94l-10.8-118.033c0-3.375-2.7-6.075-6.075-6.075L557.61,526.453L557.61,526.453z
	 M609.585,542.655c-0.225-4.05-3.375-6.705-7.155-6.705c-4.05,0-7.108,2.7-7.38,6.705l-9.765,109.352l9,115.335
	c0,4.05,3.375,7.063,7.154,7.063c3.329,0,6.659-3.06,6.659-7.109l10.216-115.335L608.1,541.98L609.585,542.655L609.585,542.655z
	 M645.99,465.748c-4.545,0-8.102,4.052-8.102,8.146l-9.449,178.064l8.416,115.336c0,4.05,3.6,7.38,8.1,7.38
	c4.229,0,7.83-4.052,8.1-8.102l9.405-115.335l-9.405-178.74c-0.358-4.68-3.96-8.1-8.1-8.1 M688.11,423.27
	c-4.727,0-8.775,4.05-9.137,8.729l-8.1,219.24L678.3,765.9c0,5.4,4.05,9.405,8.775,9.405c4.68,0,8.729-4.005,9.45-9.405
	l8.685-114.66l-8.64-218.52c-0.722-5.4-4.727-9.45-9.45-9.45 M731.625,403.065c-5.445,0-9.495,4.005-10.125,9.405l-7.425,237.375
	l7.425,113.398c0.63,5.355,4.68,10.125,10.125,10.125c5.355,0,10.125-4.725,10.125-10.125l8.775-113.398l-8.82-237.375
	c0-5.4-4.725-10.125-10.125-10.125 M787.605,404.368c0-6.073-4.727-10.8-10.802-10.8c-5.354,0-10.8,4.727-10.8,10.8L759.3,649.215
	l6.705,112.635c0.72,6.075,5.445,10.8,11.521,10.8c6.073,0,10.8-4.725,10.8-10.8l7.38-112.635l-7.38-245.521L787.605,404.368
	L787.605,404.368z M821.31,398.34c-6.073,0-11.475,5.354-11.475,11.43l-6.75,239.49l6.75,111.284c0,6.75,5.4,11.476,11.475,11.476
	c6.075,0,11.477-5.4,11.477-12.15l6.75-111.33l-7.425-238.813c0-6.66-5.4-12.15-12.195-12.15 M865.14,405.044
	c-7.38,0-12.778,6.074-12.778,12.824l-4.637,231.437l6.075,111.33c0,6.705,5.355,12.465,12.78,12.465
	c6.705,0,12.195-5.4,12.78-12.825l5.443-109.935L878.73,420.3c-0.541-7.381-6.075-12.825-12.825-12.825 M919.186,364.948
	c-2.024-1.305-4.726-1.979-7.426-1.979c-2.699,0-5.354,0.675-7.425,1.979c-4.05,2.431-6.705,6.75-6.705,11.477v2.744l-4.68,272.159
	l5.175,110.205v0.36c0.36,2.7,1.35,6.075,3.33,8.1c2.609,2.745,6.39,4.681,10.53,4.681c3.6,0,7.108-1.979,9.403-4.051
	c2.61-2.698,4.097-6.074,4.097-10.125l0.675-10.8l5.265-99.135l-6.075-273.87c0-4.68-2.744-8.685-6.073-10.755L919.186,364.948
	L919.186,364.948z M964.455,340.334c-2.025-2.024-4.05-2.744-6.75-2.744c-3.33,0-6.705,0.72-9.405,2.744
	c-3.375,2.744-5.354,6.75-5.354,10.801v1.305l-6.165,297.405l3.42,54.675l2.745,53.325c0,7.38,6.659,14.13,14.76,14.13
	c8.145,0,14.85-6.75,14.85-14.807l6.75-108.63l-6.75-298.665c0-5.398-3.33-9.943-7.425-12.465 M1367.16,507.373
	c-18.225,0-35.775,3.87-51.255,10.44c-10.8-119.43-110.7-213.12-233.46-213.12c-29.655,0-58.727,6.075-85.005,16.155
	c-10.126,4.05-12.15,8.1-12.825,16.154v421.561c0.72,8.1,6.75,14.85,14.85,15.524h368.325C1440.645,774.81,1500,716.13,1500,642.6
	s-59.355-132.84-132.21-132.84"/>
</svg>
