<?xml version="1.0" encoding="utf-8"?>
<!-- Generator: Adobe Illustrator 16.0.0, SVG Export Plug-In . SVG Version: 6.00 Build 0)  -->
<!DOCTYPE svg PUBLIC "-//W3C//DTD SVG 1.1//EN" "http://www.w3.org/Graphics/SVG/1.1/DTD/svg11.dtd">
<svg version="1.1" id="Layer_1" xmlns="http://www.w3.org/2000/svg" xmlns:xlink="http://www.w3.org/1999/xlink" x="0px" y="0px"
	 width="1920px" height="1080px" viewBox="0 0 1920 1080" enable-background="new 0 0 1920 1080" xml:space="preserve">
<title>Twitter icon</title>
<path fill="#FFFFFF" d="M1497.93,205.605c-39.824,17.505-82.35,29.431-127.125,34.875c45.631-27.495,80.73-70.83,97.335-122.535
	c-42.795,24.976-90.225,43.155-140.715,53.28c-40.319-43.155-97.785-70.155-161.595-70.155c-122.266,0-221.4,99.136-221.4,221.265
	c0,17.551,2.025,34.426,5.715,50.58C766.095,364.23,602.97,275.85,493.8,142.245c-19.215,32.489-29.97,70.244-29.97,111.375
	c0,76.949,39.15,144.584,98.46,184.319c-36.315-1.17-70.47-11.16-100.26-27.72v2.745c0,107.324,76.185,196.83,177.569,217.215
	c-18.585,4.995-38.205,7.694-58.319,7.694c-14.13,0-27.675-1.35-41.22-3.869C568.455,721.89,650.085,785.97,747.24,787.77
	c-75.601,59.354-171.405,94.725-274.59,94.725c-17.551,0-35.056-1.035-52.65-3.015c98.505,62.729,214.561,99.405,340.064,99.405
	c407.431,0,629.955-337.32,629.955-629.37c0-9.405,0-18.9-0.675-28.351c43.245-31.005,81-70.199,110.7-114.659L1497.93,205.605
	L1497.93,205.605z"/>
</svg>
