<?xml version="1.0" encoding="utf-8"?>
<!-- Generator: Adobe Illustrator 16.0.0, SVG Export Plug-In . SVG Version: 6.00 Build 0)  -->
<!DOCTYPE svg PUBLIC "-//W3C//DTD SVG 1.1//EN" "http://www.w3.org/Graphics/SVG/1.1/DTD/svg11.dtd">
<svg version="1.1" id="Layer_1" xmlns="http://www.w3.org/2000/svg" xmlns:xlink="http://www.w3.org/1999/xlink" x="0px" y="0px"
	 width="1920px" height="1080px" viewBox="0 0 1920 1080" enable-background="new 0 0 1920 1080" xml:space="preserve">
<title>YouTube icon</title>
<path d="M1477.275,279.225c-12.728-45.601-48.359-81.232-93.96-93.96c-84.15-22.545-422.82-22.545-422.82-22.545
	s-337.815-0.45-422.82,22.545c-45.601,12.728-81.232,48.359-93.96,93.96c-15.951,86.153-23.815,173.607-23.49,261.225
	c-0.264,87.286,7.6,174.407,23.49,260.235c12.728,45.601,48.359,81.233,93.96,93.96c84.062,22.59,422.82,22.59,422.82,22.59
	s337.77,0,422.819-22.59c45.601-12.727,81.233-48.359,93.961-93.96c15.558-85.859,23.09-172.979,22.5-260.235
	C1500.428,452.864,1492.895,365.407,1477.275,279.225L1477.275,279.225z M852.405,702.045V378.36l281.88,162.09L852.405,702.045z"/>
</svg>
